<svg aria-hidden="true" style="position: absolute; width: 0; height: 0; overflow: hidden;" version="1.1" xmlns="http://www.w3.org/2000/svg" xmlns:xlink="http://www.w3.org/1999/xlink">
<defs>
<symbol id="icon-accuracy" viewBox="0 0 32 32">
<path fill="#fff" style="fill: var(--color1, #fff)" d="M15.315 32v-12.177h1.341c0 0.037 0.005 0.074 0.005 0.112 0 3.983 0 7.965 0 11.948 0 0.039-0.004 0.077-0.006 0.116h-1.34zM6.881 26.422c-2.554-2.218-4.225-5.28-4.71-8.627h1.36c0.077 0.357 0.144 0.711 0.232 1.061 0.486 1.981 1.446 3.815 2.797 5.344 1.633 1.882 3.785 3.243 6.185 3.912 0.449 0.125 0.912 0.207 1.367 0.314 0.029 0.008 0.074 0.040 0.074 0.063 0.005 0.433 0 0.865 0 1.318-2.714-0.388-5.254-1.564-7.305-3.383zM17.794 28.441c2.668-0.426 5.131-1.69 7.032-3.61 1.919-1.905 3.182-4.371 3.608-7.041h1.355c-0.44 3.026-1.845 5.83-4.006 7.993s-4.964 3.57-7.99 4.013v-1.355zM17.948 21.707c0-0.032 0.053-0.077 0.090-0.092 0.468-0.177 0.912-0.41 1.322-0.696 1.028-0.706 1.812-1.712 2.246-2.881 0.006-0.029 0.023-0.056 0.048-0.073s0.055-0.025 0.085-0.021c0.405 0.004 0.81 0 1.214 0h0.097c-0.345 1.217-0.995 2.326-1.889 3.22s-2.002 1.546-3.219 1.891c0.002-0.456 0-0.902 0.006-1.346v-0.002zM8.925 17.946h0.616c0.238 0 0.476 0 0.713 0 0.024-0.004 0.048 0.002 0.068 0.016s0.034 0.035 0.039 0.058c0.276 0.749 0.697 1.436 1.239 2.022s1.194 1.060 1.92 1.393c0.143 0.069 0.296 0.119 0.439 0.184 0.031 0.014 0.072 0.054 0.072 0.083 0.004 0.444 0 0.888 0 1.331 0 0.006-0.006 0.013-0.009 0.019-1.215-0.346-2.321-0.997-3.213-1.891s-1.541-2.001-1.885-3.216zM15.991 18.023c-0.538-0.002-1.054-0.217-1.434-0.597s-0.595-0.897-0.596-1.435c0.002-0.538 0.218-1.053 0.599-1.433s0.897-0.594 1.435-0.595c0.265 0.001 0.527 0.056 0.771 0.159s0.465 0.254 0.65 0.444 0.33 0.414 0.428 0.661c0.097 0.246 0.145 0.51 0.14 0.775 0.003 0.264-0.046 0.526-0.144 0.77s-0.244 0.468-0.429 0.656c-0.185 0.188-0.405 0.337-0.648 0.44s-0.504 0.156-0.768 0.157l-0.002-0.001zM19.967 16.668h-0.144v-1.349h12.177v1.342c-0.050 0-0.099 0.007-0.148 0.007l-11.885-0.001zM0 16.663v-1.336h12.151v1.336h-12.151zM28.419 14.096c-0.319-1.916-1.074-3.734-2.207-5.312-1.044-1.469-2.386-2.7-3.939-3.614-1.269-0.753-2.66-1.278-4.11-1.55l-0.362-0.068v-1.365c2.573 0.364 4.992 1.439 6.985 3.106 2.727 2.235 4.52 5.408 5.027 8.897-0.050 0-0.084 0.005-0.119 0.005-0.383 0-0.767 0-1.149 0h-0.006c-0.077 0.002-0.106-0.020-0.12-0.1zM3.464 14.197c-0.412 0-0.823 0-1.235 0-0.018-0.002-0.037-0.006-0.055-0.011 0.456-3.123 1.944-6.004 4.226-8.184 2.127-2.057 4.85-3.387 7.78-3.799v1.349c-0.188 0.036-0.376 0.072-0.565 0.111-1.633 0.333-3.183 0.987-4.562 1.923-1.924 1.29-3.462 3.078-4.45 5.173-0.506 1.063-0.86 2.192-1.051 3.354-0.010 0.060-0.026 0.086-0.088 0.086l-0.002-0.002zM10.234 14.043c-0.405-0.004-0.81 0-1.214 0h-0.095c0.346-1.217 0.997-2.326 1.892-3.22s2.003-1.546 3.221-1.892v0.117c0 0.394 0 0.788 0 1.183 0.005 0.034-0.002 0.068-0.021 0.097s-0.048 0.048-0.081 0.056c-0.816 0.303-1.557 0.779-2.172 1.394s-1.091 1.356-1.394 2.172c-0.007 0.029-0.024 0.055-0.048 0.073s-0.054 0.026-0.084 0.024l-0.002-0.003zM21.614 13.96c-0.304-0.827-0.786-1.577-1.41-2.198s-1.377-1.099-2.205-1.399c-0.016-0.006-0.033-0.016-0.051-0.024v-1.403c1.217 0.344 2.325 0.994 3.219 1.887s1.545 2.001 1.89 3.218h-0.444c-0.291 0-0.582 0-0.873 0h-0.005c-0.026 0.003-0.053-0.003-0.076-0.018s-0.038-0.037-0.045-0.063h0.001zM15.322 12.162v-12.162h1.335v12.161l-1.335 0.001z"></path>
</symbol>
<symbol id="icon-award" viewBox="0 0 32 32">
<path fill="#fff" style="fill: var(--color1, #fff)" d="M23.825 29.049c-0.315-0.134-0.594-0.338-0.817-0.597-0.067-0.092-0.162-0.16-0.27-0.194s-0.225-0.035-0.333 0.001c-0.314 0.091-0.625 0.19-0.939 0.277s-0.313 0.082-0.484-0.272l0.406-0.129c0.308-0.101 0.615-0.224 0.933-0.295 0.343-0.078 0.392-0.298 0.416-0.59 0.015-0.483 0.081-0.963 0.197-1.433 0.126-0.395 0.329-0.76 0.599-1.075s0.6-0.571 0.971-0.755c0.090-0.037 0.183-0.068 0.277-0.094-0.23 1.108-0.22 2.205-0.833 3.187 0.465-0.369 0.951-0.711 1.38-1.115 0.054-0.090 0.087-0.19 0.098-0.294s-0.002-0.209-0.036-0.308c-0.215-0.643-0.261-1.331-0.135-1.997s0.42-1.29 0.854-1.81c0.097-0.105 0.199-0.203 0.308-0.296 0.088 1.169 0.381 2.23 0.123 3.319l0.073 0.039c0.288-0.41 0.553-0.835 0.794-1.274 0.018-0.1 0.016-0.203-0.006-0.302s-0.065-0.192-0.125-0.275c-0.363-0.585-0.575-1.25-0.618-1.937s0.085-1.373 0.372-1.998c0.040-0.1 0.101-0.191 0.181-0.264 0.441 1.042 0.991 2.039 0.989 3.23 0.135-0.391 0.241-0.796 0.413-1.169 0.139-0.261 0.174-0.565 0.099-0.851s-0.256-0.533-0.505-0.691c-0.629-0.608-0.997-1.436-1.027-2.31-0.026-0.451-0.028-0.903-0.008-1.354l0.161-0.041c0.662 0.876 1.45 1.673 1.817 2.769 0.026-0.554 0.062-1.105 0.074-1.657-0.001-0.121-0.039-0.24-0.109-0.339s-0.169-0.174-0.283-0.215c-1.432-0.682-1.873-1.932-2.005-3.359 0.009-0.075 0.025-0.148 0.049-0.22 0.797 0.682 1.703 1.172 2.166 2.124l0.088-0.030c-0.114-0.578-0.212-1.161-0.356-1.733-0.037-0.067-0.089-0.124-0.153-0.168s-0.136-0.071-0.212-0.081c-1.265-0.111-1.919-0.932-2.407-1.952-0.112-0.228-0.199-0.467-0.26-0.713 0.908 0.239 1.766 0.638 2.535 1.179-0.187-0.479-0.401-0.946-0.64-1.401-0.072-0.123-0.395-0.177-0.586-0.148-0.377 0.057-0.761 0.025-1.123-0.095s-0.69-0.322-0.959-0.592c-0.287-0.283-0.533-0.605-0.729-0.957 0.123 0 0.246 0 0.373 0 0.776-0.066 1.557 0.064 2.27 0.377-0.234-0.36-0.489-0.706-0.764-1.036-0.083-0.090-0.373-0.077-0.524-0.014-0.513 0.187-1.073 0.202-1.595 0.042s-0.978-0.486-1.298-0.928c-0.015-0.027-0.027-0.055-0.034-0.085 0.311-0.276 1.684-0.369 2.409-0.165-0.11-0.195-0.262-0.364-0.444-0.495s-0.39-0.221-0.61-0.264c-0.429-0.078-0.833-0.259-1.177-0.529s-0.615-0.619-0.792-1.018c-0.119-0.257-0.224-0.521-0.314-0.79 0.058-0.033 0.079-0.057 0.092-0.052 0.806 0.159 1.56 0.515 2.194 1.036 0.154 0.133 0.279 0.297 0.367 0.481s0.137 0.384 0.143 0.587c0.005 0.090 0.042 0.176 0.105 0.24 0.369 0.357 0.745 0.703 1.114 1.046-0.502-1.005-0.648-2.151-0.416-3.25l0.1-0.052c0.224 0.252 0.466 0.492 0.671 0.756 0.539 0.655 0.844 1.472 0.867 2.321-0.004 0.278-0.073 0.55-0.201 0.797-0.077 0.128-0.114 0.276-0.105 0.426s0.063 0.292 0.155 0.41c0.26 0.375 0.507 0.759 0.788 1.142-0.271-1.093-0.117-2.249 0.431-3.233 0.068 0.062 0.127 0.089 0.156 0.136 0.58 0.992 0.834 2.14 0.726 3.284-0.055 0.305-0.185 0.591-0.378 0.833-0.072 0.088-0.121 0.192-0.144 0.303s-0.019 0.227 0.012 0.336c0.142 0.452 0.325 0.893 0.511 1.34-0.050-0.576 0.026-1.157 0.223-1.7s0.511-1.038 0.919-1.448c0.1 0.259 0.174 0.527 0.22 0.8 0.056 0.74 0.072 1.483 0.046 2.225-0.021 0.261-0.093 0.516-0.214 0.748s-0.287 0.438-0.489 0.605c-0.117 0.104-0.203 0.237-0.25 0.386s-0.053 0.308-0.017 0.46c0.062 0.431 0.094 0.862 0.158 1.312 0.104-0.58 0.326-1.133 0.652-1.625s0.748-0.912 1.242-1.234c0.035 0.125 0.061 0.252 0.077 0.381 0.045 1.020-0.175 2.035-0.641 2.944-0.089 0.202-0.22 0.383-0.384 0.531s-0.358 0.258-0.569 0.325c-0.268 0.078-0.294 0.308-0.314 0.519-0.055 0.577-0.092 1.155-0.134 1.727 0.176-0.258 0.348-0.541 0.549-0.8 0.437-0.569 1.027-1.003 1.701-1.25 0.101-0.026 0.204-0.039 0.308-0.041v0.373c-0.288 0.649-0.549 1.311-0.874 1.943-0.157 0.296-0.38 0.553-0.651 0.75-0.271 0.189-0.581 0.315-0.907 0.369-0.098 0.003-0.193 0.033-0.274 0.087s-0.146 0.131-0.186 0.22c-0.269 0.681-0.515 1.369-0.804 2.146 0.365-0.435 0.827-0.778 1.349-1.002s1.088-0.324 1.655-0.29c-0.071 0.269-0.178 0.528-0.318 0.769-0.385 0.516-0.818 0.995-1.292 1.43-0.233 0.202-0.515 0.34-0.818 0.4s-0.616 0.041-0.909-0.056c-0.093-0.003-0.186 0.014-0.271 0.052s-0.161 0.094-0.221 0.165c-0.353 0.437-0.663 0.907-1.018 1.408 0.506-0.266 1.069-0.406 1.64-0.409s1.136 0.131 1.645 0.392c-0.154 0.198-0.323 0.383-0.506 0.554-0.681 0.612-1.565 0.949-2.48 0.946-0.323-0.066-0.637-0.169-0.935-0.308-0.156-0.046-0.377-0.123-0.48-0.054-0.454 0.294-0.874 0.635-1.35 0.992 0.557-0.086 1.127-0.042 1.665 0.129s1.028 0.464 1.434 0.855c-0.125 0.118-0.261 0.222-0.408 0.312-0.549 0.264-1.148 0.406-1.757 0.417-0.377 0.001-0.751-0.061-1.107-0.183zM5.35 28.837c-0.152-0.087-0.296-0.187-0.431-0.299 0.39-0.4 0.868-0.705 1.395-0.889s1.090-0.245 1.645-0.176c-0.189-0.127-0.382-0.246-0.564-0.383-0.215-0.184-0.441-0.355-0.677-0.512-0.13-0.074-0.389-0.119-0.477-0.046-0.233 0.185-0.508 0.309-0.801 0.362s-0.594 0.032-0.877-0.059c-0.854-0.162-1.625-0.616-2.182-1.284-0.036-0.056-0.068-0.113-0.098-0.172 0.502-0.259 1.059-0.391 1.624-0.387s1.12 0.146 1.618 0.412c-0.364-0.51-0.696-0.998-1.055-1.465-0.060-0.086-0.148-0.149-0.249-0.177s-0.209-0.018-0.304 0.026c-0.222 0.074-0.458 0.097-0.69 0.067s-0.455-0.11-0.651-0.236c-0.785-0.451-1.402-1.145-1.757-1.978-0.046-0.131-0.082-0.266-0.107-0.403 0.561-0.031 1.121 0.069 1.637 0.291s0.972 0.563 1.333 0.993c-0.284-0.767-0.525-1.446-0.789-2.117-0.030-0.102-0.094-0.189-0.183-0.248s-0.195-0.083-0.3-0.071c-0.175 0.006-0.349-0.026-0.51-0.094s-0.306-0.169-0.424-0.298c-0.776-0.75-1.292-1.73-1.47-2.795-0.007-0.099-0.007-0.197 0-0.296 0.553 0.161 1.066 0.438 1.504 0.811s0.793 0.836 1.040 1.357c-0.044-0.582-0.084-1.142-0.127-1.703 0.005-0.144-0.038-0.286-0.122-0.403s-0.205-0.203-0.344-0.244c-0.286-0.127-0.526-0.34-0.688-0.608-0.576-0.97-0.842-2.093-0.761-3.218 0.015-0.098 0.038-0.194 0.068-0.288 0.494 0.321 0.919 0.737 1.248 1.226s0.556 1.038 0.668 1.617c0.054-0.517 0.123-1.033 0.15-1.551 0.006-0.176-0.058-0.346-0.178-0.474-0.862-0.774-0.93-1.777-0.858-2.809 0.054-0.492 0.136-0.981 0.246-1.464 0.010-0.055 0.062-0.102 0.111-0.184 0.4 0.409 0.707 0.899 0.902 1.438s0.272 1.111 0.227 1.682c0.17-0.473 0.369-0.938 0.492-1.422 0.042-0.167-0.083-0.382-0.153-0.567-0.17-0.303-0.297-0.628-0.377-0.965-0.065-1.041 0.16-2.079 0.649-3 0.050-0.097 0.123-0.185 0.223-0.332 0.563 0.998 0.732 2.17 0.474 3.286 0.296-0.449 0.608-0.887 0.878-1.35 0.037-0.073 0.058-0.154 0.059-0.236s-0.016-0.163-0.050-0.238c-0.158-0.263-0.255-0.56-0.282-0.866s0.015-0.614 0.124-0.902c0.251-0.907 0.777-1.714 1.505-2.311 0.256 1.123 0.117 2.3-0.393 3.333 0.375-0.35 0.772-0.713 1.161-1.084 0.039-0.047 0.059-0.107 0.057-0.169 0.005-0.235 0.065-0.466 0.173-0.675s0.263-0.39 0.453-0.53c0.66-0.454 1.395-0.788 2.171-0.988-0.113 0.576-0.371 1.114-0.749 1.563-0.444 0.495-1.042 0.827-1.697 0.943-0.363 0.148-0.685 0.38-0.941 0.677 0.854-0.27 1.649-0.027 2.523 0.118-0.193 0.316-0.454 0.586-0.764 0.788s-0.662 0.332-1.030 0.381c-0.364 0.032-0.731-0.004-1.082-0.105-0.52-0.14-0.567-0.156-0.888 0.288-0.145 0.203-0.284 0.411-0.425 0.615-0.028 0.042-0.052 0.088-0.123 0.209 0.862-0.512 1.748-0.458 2.639-0.515 0 0.066 0.015 0.115 0 0.145-0.211 0.419-0.52 0.78-0.901 1.053s-0.823 0.449-1.287 0.514c-0.242 0.012-0.484-0.001-0.723-0.038-0.119-0.025-0.242-0.005-0.346 0.057s-0.181 0.161-0.216 0.277c-0.158 0.415-0.346 0.818-0.503 1.243 0.715-0.638 1.63-0.845 2.462-1.222l0.079 0.068c-0.112 0.258-0.213 0.523-0.338 0.774-0.237 0.585-0.642 1.087-1.164 1.441-0.299 0.17-0.623 0.292-0.959 0.362-0.512 0.107-0.598 0.145-0.699 0.645-0.098 0.469-0.171 0.942-0.219 1.419 0.499-0.934 1.406-1.43 2.166-2.078l0.103 0.035c-0.038 0.308-0.054 0.622-0.116 0.923-0.148 0.893-0.624 1.699-1.334 2.26-0.164 0.113-0.339 0.211-0.521 0.291-0.142 0.055-0.262 0.155-0.342 0.285s-0.115 0.282-0.101 0.434c0.031 0.506 0.055 1.012 0.115 1.531 0.322-1.098 1.119-1.886 1.763-2.769l0.111 0.010c0.031 0.265 0.086 0.529 0.091 0.795 0.036 0.804-0.167 1.601-0.584 2.289-0.211 0.309-0.454 0.595-0.725 0.853-0.14 0.107-0.241 0.257-0.287 0.426s-0.036 0.35 0.030 0.513c0.195 0.496 0.336 1.012 0.531 1.513-0.017-1.174 0.529-2.172 0.923-3.215l0.112-0.017c0.127 0.282 0.237 0.572 0.329 0.867 0.167 0.553 0.212 1.136 0.134 1.708s-0.279 1.121-0.588 1.609c-0.106 0.13-0.162 0.294-0.159 0.461s0.066 0.329 0.177 0.454c0.236 0.298 0.431 0.628 0.677 0.932-0.223-1.098 0.073-2.157 0.146-3.316 0.102 0.070 0.197 0.149 0.285 0.235 0.447 0.517 0.751 1.142 0.883 1.813s0.085 1.365-0.134 2.012c-0.066 0.136-0.080 0.292-0.039 0.438s0.134 0.272 0.262 0.354c0.421 0.3 0.82 0.629 1.247 0.923-0.483-0.979-0.755-2.048-0.8-3.139 0.378 0.119 0.718 0.336 0.985 0.63 0.325 0.31 0.582 0.683 0.755 1.097s0.259 0.859 0.253 1.307c-0.009 0.742 0 0.748 0.714 0.998 0.334 0.116 0.677 0.204 1.025 0.308-0.072 0.265-0.178 0.393-0.457 0.295-0.308-0.108-0.625-0.19-0.937-0.284-0.11-0.050-0.236-0.058-0.351-0.020s-0.212 0.118-0.271 0.224c-0.119 0.174-0.272 0.322-0.45 0.436s-0.377 0.19-0.585 0.224c-0.288 0.063-0.581 0.096-0.876 0.096-0.592-0-1.177-0.129-1.714-0.378zM11.024 22.978c-0.099-0.11-0.174-0.239-0.222-0.379s-0.065-0.288-0.053-0.435v-0.038l0.185-1.046c0.098-0.549 0.196-1.099 0.294-1.651 0.025-0.142 0.052-0.282 0.079-0.423 0.058-0.308 0.112-0.601 0.154-0.895-0.937-0.893-1.898-1.792-2.831-2.662l-0.055-0.051c-0.182-0.133-0.318-0.319-0.389-0.534s-0.072-0.445-0.003-0.66c0.081-0.2 0.218-0.373 0.396-0.495s0.387-0.19 0.603-0.195l0.041-0.005c0.57-0.078 1.15-0.159 1.709-0.236 0.743-0.104 1.512-0.211 2.268-0.313 0.407-0.807 0.827-1.623 1.231-2.413 0.187-0.363 0.373-0.727 0.559-1.090 0.078-0.202 0.213-0.377 0.39-0.502s0.386-0.195 0.603-0.202c0.216 0.006 0.426 0.076 0.603 0.201s0.312 0.299 0.389 0.501l0.004 0.006c0.19 0.372 0.381 0.743 0.572 1.114 0.402 0.781 0.817 1.588 1.22 2.386 0.728 0.099 1.467 0.201 2.182 0.3 0.61 0.085 1.22 0.169 1.829 0.254h0.004c0.218 0.003 0.429 0.071 0.608 0.195s0.317 0.298 0.395 0.501c0.065 0.212 0.064 0.44-0.005 0.651s-0.201 0.396-0.379 0.529c-0.388 0.361-0.775 0.724-1.161 1.087-0.569 0.534-1.156 1.087-1.739 1.628 0.25 1.324 0.482 2.632 0.689 3.887 0.037 0.206 0.016 0.419-0.060 0.615s-0.204 0.366-0.371 0.493c-0.166 0.095-0.355 0.143-0.546 0.138-0.203 0.001-0.403-0.043-0.586-0.129-1.060-0.518-2.221-1.101-3.648-1.836-1.234 0.635-2.492 1.269-3.668 1.859-0.181 0.094-0.381 0.145-0.585 0.147-0.132 0-0.263-0.027-0.384-0.079s-0.231-0.128-0.322-0.224zM15.532 11.113c-0.409 0.795-0.831 1.617-1.24 2.428-0.079 0.174-0.203 0.325-0.358 0.436s-0.337 0.181-0.528 0.2c-0.767 0.103-1.545 0.212-2.299 0.317-0.484 0.066-0.985 0.137-1.477 0.204 0.9 0.841 1.825 1.708 2.729 2.571 0.12 0.111 0.213 0.248 0.272 0.401s0.083 0.316 0.070 0.479c-0.049 0.369-0.117 0.735-0.185 1.088-0.025 0.137-0.052 0.274-0.076 0.412-0.098 0.551-0.196 1.102-0.294 1.651l-0.106 0.597c1.108-0.554 2.277-1.145 3.422-1.735 0.163-0.088 0.344-0.136 0.529-0.139 0.183 0.002 0.363 0.049 0.524 0.137 1.347 0.694 2.415 1.231 3.42 1.723-0.196-1.169-0.412-2.382-0.644-3.608-0.042-0.189-0.032-0.385 0.030-0.569s0.172-0.346 0.32-0.471c0.591-0.548 1.189-1.111 1.767-1.654 0.314-0.295 0.629-0.59 0.943-0.884l-1.563-0.217c-0.735-0.102-1.495-0.208-2.242-0.308-0.18-0.019-0.352-0.085-0.5-0.191s-0.265-0.247-0.342-0.411c-0.41-0.811-0.833-1.635-1.243-2.431l-0.473-0.923-0.459 0.897z"></path>
</symbol>
<symbol id="icon-bordered-star" viewBox="0 0 32 32">
<path fill="#f5b423" style="fill: var(--color2, #f5b423)" d="M15.364 3.765l-3.227 6.461c-0.569 1.138-1.662 1.907-2.926 2.057l-7.327 0.866 5.228 4.613c1.007 0.888 1.466 2.258 1.198 3.573l-1.37 6.734 6.691-3.466c0.533-0.276 1.131-0.422 1.731-0.422s1.199 0.146 1.731 0.422l6.691 3.466c0 0 0 0 0 0l-1.37-6.734c-0.268-1.316 0.191-2.685 1.198-3.573l5.228-4.613-7.326-0.866c-1.264-0.149-2.357-0.918-2.926-2.057l-3.227-6.461zM15.364 1.882c0.669 0 1.337 0.347 1.684 1.041l3.227 6.461c0.283 0.567 0.833 0.954 1.463 1.028l7.327 0.866c1.616 0.191 2.245 2.204 1.024 3.281l-5.228 4.613c-0.505 0.446-0.733 1.127-0.599 1.787l1.37 6.734c0.315 1.55-1.306 2.774-2.71 2.047l-6.691-3.466c-0.543-0.281-1.189-0.281-1.731 0l-6.691 3.466c-1.405 0.727-3.026-0.497-2.71-2.047l1.37-6.734c0.134-0.66-0.094-1.341-0.599-1.787l-5.228-4.613c-1.22-1.077-0.592-3.090 1.024-3.281l7.327-0.866c0.63-0.075 1.18-0.461 1.463-1.028l3.227-6.461c0.347-0.694 1.015-1.041 1.684-1.041z"></path>
</symbol>
<symbol id="icon-clock" viewBox="0 0 32 32">
<path fill="#fff" style="fill: var(--color3, #fff)" d="M4.615 27.242c-2.969-3.007-4.628-7.066-4.615-11.292s1.698-8.275 4.686-11.263c2.988-2.988 7.037-4.673 11.263-4.686s8.285 1.645 11.293 4.614c2.969 3.007 4.628 7.066 4.615 11.292s-1.698 8.275-4.686 11.263c-2.988 2.988-7.037 4.673-11.263 4.686s-8.286-1.645-11.293-4.615zM6.291 6.292c-1.281 1.262-2.3 2.765-2.998 4.423s-1.060 3.437-1.067 5.236c-0.007 1.798 0.343 3.58 1.028 5.243s1.693 3.174 2.964 4.445c1.272 1.272 2.782 2.279 4.445 2.964s3.445 1.034 5.243 1.028c1.798-0.007 3.578-0.369 5.235-1.067s3.161-1.716 4.423-2.998c1.281-1.262 2.3-2.765 2.997-4.423s1.060-3.437 1.067-5.235c0.007-1.798-0.343-3.58-1.028-5.243s-1.693-3.174-2.964-4.445-2.782-2.279-4.445-2.964c-1.663-0.685-3.445-1.034-5.243-1.028s-3.578 0.369-5.236 1.067-3.161 1.716-4.423 2.997zM20.879 19.852l-5.481-2.739c-0.198-0.099-0.364-0.251-0.48-0.44s-0.177-0.406-0.175-0.627v-8.217c0-0.314 0.125-0.616 0.347-0.838s0.524-0.347 0.838-0.347 0.616 0.125 0.838 0.347c0.222 0.222 0.347 0.524 0.347 0.838v7.489l4.827 2.414c0.143 0.068 0.271 0.163 0.376 0.28s0.186 0.255 0.238 0.404c0.052 0.149 0.073 0.307 0.062 0.465s-0.052 0.311-0.123 0.453c-0.071 0.141-0.169 0.267-0.289 0.37s-0.259 0.18-0.409 0.229c-0.15 0.048-0.309 0.066-0.466 0.052s-0.31-0.059-0.45-0.133z"></path>
</symbol>
<symbol id="icon-coins" viewBox="0 0 32 32">
<path d="M16 32c8.837 0 16-7.163 16-16s-7.163-16-16-16c-8.837 0-16 7.163-16 16s7.163 16 16 16z"></path>
</symbol>
<symbol id="icon-dropdown-menu-arrow" viewBox="0 0 32 32">
<path d="M31.771 8.248l-15.884 15.887-15.887-15.887 2.915-2.915 12.973 12.973 12.969-12.973 2.915 2.915z"></path>
</symbol>
<symbol id="icon-education" viewBox="0 0 32 32">
<path d="M16 32c8.837 0 16-7.163 16-16s-7.163-16-16-16c-8.837 0-16 7.163-16 16s7.163 16 16 16z"></path>
</symbol>
<symbol id="icon-email" viewBox="0 0 32 32">
<path fill="#fff" style="fill: var(--color3, #fff)" d="M4.267 28.002c-1.092 0.036-2.154-0.362-2.953-1.106s-1.272-1.775-1.313-2.867v-16.055c0.042-1.091 0.514-2.122 1.314-2.866s1.861-1.142 2.953-1.106h23.467c1.092-0.036 2.153 0.362 2.953 1.106s1.272 1.775 1.314 2.866v16.055c-0.042 1.092-0.514 2.123-1.313 2.867s-1.861 1.142-2.953 1.106h-23.467zM2.667 24.029c0.037 0.392 0.224 0.755 0.522 1.012s0.685 0.389 1.078 0.367h23.467c0.393 0.022 0.78-0.11 1.078-0.367s0.485-0.62 0.522-1.012v-10.921l-12.525 9.288c-0.234 0.172-0.517 0.265-0.808 0.265s-0.574-0.093-0.808-0.265l-12.525-9.288v10.921zM16 19.736l13.333-9.891v-1.867c-0.037-0.392-0.224-0.754-0.523-1.011s-0.684-0.388-1.077-0.366h-23.467c-0.392-0.022-0.778 0.109-1.076 0.365s-0.486 0.617-0.524 1.008v1.867l13.333 9.895z"></path>
</symbol>
<symbol id="icon-empty-star" viewBox="0 0 32 32">
<path fill="#e9e9ed" style="fill: var(--color4, #e9e9ed)" d="M12.868 2.838c0.218-0.451 0.559-0.831 0.984-1.097s0.915-0.407 1.416-0.407c0.501 0 0.992 0.141 1.416 0.407s0.765 0.646 0.984 1.097l2.565 5.333c0.194 0.403 0.485 0.75 0.848 1.011s0.786 0.426 1.229 0.48l5.867 0.72c0.506 0.062 0.984 0.268 1.376 0.592s0.684 0.756 0.839 1.241 0.169 1.005 0.038 1.498c-0.131 0.493-0.4 0.937-0.776 1.282l-4.221 3.875c-0.337 0.309-0.589 0.699-0.732 1.133s-0.172 0.898-0.084 1.347l1.104 5.629c0.098 0.496 0.053 1.009-0.13 1.48s-0.496 0.881-0.902 1.181c-0.407 0.3-0.89 0.478-1.394 0.514s-1.008-0.072-1.453-0.312l-5.309-2.853c-0.388-0.209-0.822-0.318-1.263-0.318s-0.874 0.109-1.263 0.318l-5.312 2.853c-0.445 0.239-0.949 0.348-1.453 0.312s-0.988-0.214-1.394-0.514c-0.407-0.3-0.72-0.71-0.902-1.181s-0.228-0.985-0.13-1.48l1.104-5.629c0.088-0.449 0.059-0.912-0.084-1.347s-0.395-0.825-0.732-1.133l-4.235-3.877c-0.377-0.344-0.647-0.789-0.778-1.282s-0.119-1.013 0.037-1.499c0.156-0.486 0.447-0.917 0.84-1.242s0.872-0.531 1.378-0.592l5.867-0.72c0.443-0.055 0.866-0.22 1.229-0.48s0.655-0.608 0.848-1.011l2.579-5.328z"></path>
</symbol>
<symbol id="icon-eye" viewBox="0 0 32 32">
<path d="M0.178 16.775c-0.117-0.242-0.178-0.507-0.178-0.776s0.061-0.534 0.178-0.776c0.233-0.476 5.774-11.668 15.822-11.668s15.594 11.2 15.823 11.668c0.117 0.242 0.178 0.507 0.178 0.776s-0.061 0.534-0.178 0.776c-0.233 0.478-5.777 11.669-15.823 11.669s-15.587-11.2-15.822-11.669zM3.801 15.998c1.33 2.293 5.713 8.889 12.199 8.889 6.514 0 10.879-6.592 12.203-8.889-1.33-2.293-5.714-8.889-12.203-8.889s-10.874 6.59-12.199 8.889zM11.268 15.998c0-1.415 0.561-2.771 1.562-3.772s2.357-1.562 3.772-1.562c1.414 0 2.771 0.561 3.771 1.562s1.563 2.357 1.563 3.772c0 1.414-0.562 2.771-1.563 3.771s-2.356 1.563-3.771 1.563c-1.413-0.002-2.768-0.565-3.767-1.564s-1.559-2.354-1.56-3.767l-0.007-0.002zM14.824 15.998c0 0.472 0.187 0.924 0.52 1.257s0.786 0.521 1.258 0.521c0.471 0 0.924-0.187 1.257-0.521s0.521-0.785 0.521-1.257-0.188-0.924-0.521-1.257c-0.333-0.333-0.785-0.521-1.257-0.521-0.471 0.002-0.922 0.19-1.253 0.523s-0.518 0.786-0.517 1.256l-0.007-0.002z"></path>
</symbol>
<symbol id="icon-facebook" viewBox="0 0 32 32">
<path d="M26.268 0h-20.693c-1.476 0.021-2.886 0.619-3.927 1.665s-1.633 2.459-1.647 3.935v20.96c0.048 1.45 0.654 2.826 1.693 3.84s2.428 1.587 3.88 1.6h11.145v-11.36h-3.185v-4.8h3.185v-3.040c-0.004-0.776 0.146-1.546 0.441-2.264s0.728-1.371 1.276-1.922c0.548-0.55 1.199-0.987 1.916-1.284s1.486-0.45 2.263-0.45h3.821v4.8h-3.821c-0.332 0.022-0.645 0.164-0.88 0.399s-0.377 0.548-0.4 0.881v3.040h4.139v4.8h-3.979v11.2h4.934c1.476-0.022 2.885-0.62 3.926-1.666s1.632-2.458 1.646-3.934v-20.8c-0.077-1.483-0.709-2.883-1.771-3.921s-2.476-1.637-3.961-1.679z"></path>
</symbol>
<symbol id="icon-globe" viewBox="0 0 32 32">
<path fill="#fff" style="fill: var(--color1, #fff)" d="M13.709 31.908c-0.127-0.068-0.231-0.172-0.298-0.3s-0.093-0.273-0.076-0.416c0.005-0.985 0-1.969 0-2.957v-0.369c-1.777-0.321-3.483-0.955-5.039-1.872-1.575-0.901-2.924-2.149-3.945-3.649s-1.686-3.213-1.946-5.009c-0.154-0.916-0.178-1.854-0.246-2.783-0.018-0.15 0.017-0.301 0.099-0.428s0.206-0.221 0.35-0.266c0.135-0.051 0.284-0.056 0.422-0.012s0.257 0.133 0.338 0.253c0.075 0.139 0.128 0.289 0.159 0.444 0.496 2.252 1.843 4.224 3.761 5.505 1.518 0.936 3.288 1.378 5.068 1.266 0.315-0.009 0.63-0.029 0.978-0.044v-0.381c0-1.006 0-2.014 0-3.020-0.018-0.143 0.007-0.288 0.073-0.416s0.169-0.233 0.296-0.301c0.129-0.063 0.275-0.086 0.417-0.065s0.276 0.082 0.383 0.179c3.077 2.198 6.156 4.394 9.236 6.588 0.117 0.056 0.215 0.144 0.284 0.254s0.106 0.236 0.106 0.366-0.036 0.256-0.104 0.366c-0.068 0.11-0.166 0.199-0.283 0.255-3.077 2.234-6.156 4.466-9.238 6.696-0.142 0.117-0.317 0.185-0.501 0.194-0.103-0.002-0.204-0.029-0.294-0.077zM4.399 19.548c0.787 2.009 2.179 3.723 3.983 4.905 1.66 1.112 3.547 1.84 5.523 2.132 0.615 0.094 0.772 0.277 0.774 0.901 0 0.477 0 0.954 0 1.431v1.084l7.623-5.523-7.622-5.435c0 0.927 0 1.764 0 2.6 0 0.643-0.185 0.872-0.834 0.904-0.949 0.078-1.902 0.098-2.854 0.062-2.357-0.12-4.573-1.155-6.179-2.884-0.162-0.172-0.319-0.35-0.478-0.524-0.009 0.119 0.012 0.238 0.062 0.346l0.001 0.002zM24.731 24.009c-0.068-0.070-0.12-0.154-0.154-0.246s-0.048-0.189-0.043-0.287 0.032-0.193 0.076-0.28c0.044-0.087 0.107-0.164 0.182-0.226 0.478-0.532 0.943-1.074 1.415-1.611l-0.062-0.102h-1.468c-0.724 0-1.446-0.006-2.17 0.005-0.131 0.003-0.258 0.045-0.366 0.119-0.108 0.093-0.244 0.149-0.387 0.159s-0.285-0.027-0.405-0.104c-0.125-0.074-0.22-0.187-0.272-0.323s-0.056-0.284-0.012-0.422c0.18-0.783 0.399-1.559 0.532-2.351 0.17-1.020 0.273-2.052 0.41-3.114h-5.347c0 0.459 0 0.923 0 1.384 0 0.138 0.007 0.276-0.004 0.413-0.006 0.176-0.082 0.342-0.211 0.463s-0.299 0.185-0.476 0.18c-0.171-0.005-0.333-0.076-0.451-0.2s-0.183-0.288-0.181-0.459c-0.012-0.477-0.004-0.955-0.004-1.431v-0.358h-5.27c0.023 0.377 0.019 0.756 0.076 1.126 0.178 1.15 0.372 2.297 0.574 3.443 0.082 0.463-0.079 0.815-0.456 0.905-0.41 0.098-0.719-0.123-0.837-0.596-0.371-1.524-0.599-3.079-0.68-4.645-0.004-0.072-0.013-0.143-0.023-0.251h-0.352c-1.216 0-2.431 0-3.647 0-0.159 0.018-0.319-0.020-0.454-0.106s-0.235-0.217-0.285-0.369c-0.032-0.099-0.040-0.203-0.024-0.306s0.055-0.199 0.115-0.284c0.060-0.084 0.139-0.154 0.23-0.202s0.193-0.075 0.296-0.077c0.323-0.023 0.649-0.008 0.974-0.008h3.058c0.153-1.614 0.302-3.2 0.453-4.807h-0.369c-1.31 0-2.62 0.007-3.931-0.008-0.096-0.013-0.193 0.011-0.272 0.066s-0.134 0.139-0.155 0.233c-0.39 1.019-0.653 2.082-0.783 3.165-0.002 0.165-0.063 0.325-0.172 0.449s-0.259 0.205-0.423 0.228c-0.142 0.021-0.287-0.008-0.411-0.082s-0.217-0.188-0.266-0.323c-0.048-0.194-0.058-0.396-0.027-0.593 0.148-1.253 0.477-2.477 0.977-3.636 2.004-4.53 5.415-7.335 10.222-8.303 2.943-0.559 5.988-0.137 8.668 1.202s4.846 3.52 6.167 6.209c1.032 2.006 1.56 4.234 1.537 6.49s-0.596 4.473-1.67 6.457c-0.636 1.23-1.463 2.352-2.45 3.323-0.072 0.081-0.159 0.146-0.257 0.192s-0.203 0.073-0.311 0.078c-0.161-0.002-0.315-0.068-0.428-0.183zM26.823 19.92c0.199 0 0.271-0.103 0.345-0.254 0.533-1.082 0.913-2.233 1.127-3.42 0.061-0.335 0.096-0.677 0.146-1.042-1.69 0-3.323 0-4.954-0.004-0.2 0-0.208 0.111-0.217 0.262-0.027 0.443-0.043 0.889-0.103 1.328-0.142 1.025-0.308 2.046-0.473 3.105 0.046 0.009 0.092 0.015 0.139 0.018h1.897c0.697 0.002 1.394 0.004 2.092 0.007zM23.107 9.043c-0.058 0.002-0.116 0.007-0.173 0.016 0.15 1.6 0.301 3.184 0.451 4.774h5.086c0.010-0.044 0.017-0.088 0.020-0.133-0.027-1.538-0.342-3.057-0.93-4.478-0.034-0.051-0.080-0.093-0.133-0.123s-0.113-0.047-0.174-0.050c-0.753-0.006-1.506-0.009-2.26-0.008l-1.887 0.002zM10.051 13.829h5.26v-4.767h-4.795c-0.319 1.569-0.475 3.167-0.465 4.767l-0.001-0.001zM16.689 13.826h5.282c0.007-1.603-0.152-3.202-0.474-4.771h-4.808v4.771zM20.352 2.65c0.973 1.426 1.683 3.015 2.098 4.691 0.005 0.058 0.023 0.114 0.051 0.164s0.067 0.095 0.113 0.129c0.046 0.035 0.1 0.059 0.156 0.072s0.115 0.014 0.172 0.003c1.162-0.018 2.327-0.008 3.489-0.008h0.415c-1.551-2.718-4.052-4.767-7.021-5.754 0.214 0.282 0.377 0.491 0.527 0.702zM9.096 7.707c0.055 0.010 0.111 0.009 0.165-0.004s0.105-0.037 0.149-0.070c0.044-0.034 0.081-0.076 0.108-0.124s0.043-0.102 0.048-0.157c0.466-1.917 1.33-3.714 2.537-5.274 0.014-0.018 0.011-0.049 0.017-0.081-2.335 0.47-6.185 3.631-6.92 5.703 0.713 0 1.415 0 2.118 0 0.594-0.003 1.187-0.001 1.779 0.007zM14.996 7.707c0.286 0.004 0.346-0.089 0.345-0.36-0.011-1.865-0.006-3.729-0.007-5.593 0-0.094-0.008-0.185-0.014-0.329-0.181 0.062-0.34 0.103-0.489 0.169-0.718 0.336-1.341 0.846-1.812 1.484-0.88 1.165-1.543 2.48-1.955 3.881-0.074 0.228-0.139 0.458-0.218 0.724 0.146 0.009 0.246 0.019 0.347 0.019h2.052c0.584-0.004 1.167-0.003 1.751 0.005l-0.001 0.001zM16.683 7.68h4.469c-0.017-0.1-0.040-0.198-0.070-0.295-0.318-0.839-0.598-1.696-0.97-2.509-0.472-1.102-1.208-2.071-2.142-2.822-0.373-0.308-0.815-0.521-1.288-0.621v6.247z"></path>
</symbol>
<symbol id="icon-horizontal-arrow" viewBox="0 0 32 32">
<path stroke-linejoin="round" stroke-linecap="round" stroke-miterlimit="4" stroke-width="4.8" d="M8.8 2.4l12.8 12.8-12.8 12.8"></path>
</symbol>
<symbol id="icon-instagram" viewBox="0 0 32 32">
<path d="M8.89 32c-2.357-0.002-4.617-0.94-6.283-2.606s-2.604-3.926-2.606-6.283v-14.221c0.003-2.357 0.94-4.616 2.607-6.283s3.926-2.604 6.283-2.607h14.221c2.357 0.003 4.616 0.94 6.283 2.607s2.604 3.926 2.607 6.283v14.223c-0.003 2.357-0.94 4.616-2.607 6.282s-3.926 2.603-6.283 2.605h-14.221zM7.11 16c-0 1.758 0.521 3.477 1.497 4.939s2.365 2.602 3.989 3.275c1.624 0.673 3.412 0.85 5.136 0.507s3.309-1.189 4.552-2.432c1.244-1.243 2.090-2.827 2.433-4.552s0.167-3.512-0.505-5.136-1.812-3.013-3.274-3.99c-1.462-0.977-3.181-1.498-4.939-1.498-2.356 0.003-4.616 0.94-6.282 2.606s-2.604 3.925-2.608 6.281zM24.89 5.333c0 0.351 0.105 0.695 0.3 0.986s0.473 0.519 0.798 0.654c0.325 0.134 0.682 0.169 1.026 0.101s0.661-0.238 0.909-0.486c0.248-0.248 0.418-0.565 0.486-0.909s0.034-0.702-0.101-1.026c-0.134-0.325-0.362-0.602-0.653-0.798s-0.635-0.3-0.987-0.3c-0.472 0-0.924 0.187-1.258 0.521s-0.521 0.786-0.521 1.258zM10.667 16c0-1.055 0.313-2.086 0.899-2.963s1.419-1.561 2.394-1.964c0.975-0.404 2.047-0.509 3.081-0.303s1.985 0.714 2.731 1.46c0.746 0.746 1.254 1.696 1.46 2.731s0.1 2.107-0.304 3.081c-0.404 0.975-1.087 1.808-1.964 2.394s-1.908 0.899-2.963 0.899c-1.415 0-2.771-0.562-3.771-1.562s-1.562-2.357-1.562-3.771z"></path>
</symbol>
<symbol id="icon-location" viewBox="0 0 32 32">
<path fill="#fff" style="fill: var(--color3, #fff)" d="M15.26 31.775c-2.252-1.571-4.339-3.366-6.228-5.359-1.686-1.739-3.141-3.689-4.328-5.801-1.28-2.217-1.981-4.722-2.037-7.281 0-3.536 1.405-6.928 3.905-9.428s5.892-3.905 9.428-3.905c3.536 0 6.928 1.405 9.428 3.905s3.905 5.892 3.905 9.428c-0.056 2.561-0.756 5.066-2.037 7.284-1.187 2.112-2.642 4.062-4.328 5.801-1.889 1.993-3.976 3.788-6.228 5.359-0.219 0.146-0.477 0.224-0.74 0.224s-0.521-0.078-0.74-0.224v-0.003zM5.333 13.333c0 7.219 8.133 13.819 10.667 15.695 2.533-1.875 10.667-8.475 10.667-15.695 0-2.829-1.124-5.542-3.124-7.542s-4.714-3.124-7.543-3.124c-2.829 0-5.542 1.124-7.542 3.124s-3.124 4.714-3.124 7.542zM10.667 13.333c0-1.055 0.313-2.086 0.899-2.963s1.419-1.561 2.394-1.964c0.975-0.404 2.047-0.509 3.082-0.303s1.985 0.714 2.731 1.46 1.254 1.696 1.46 2.731c0.206 1.035 0.1 2.107-0.303 3.081s-1.087 1.808-1.964 2.394-1.908 0.899-2.963 0.899c-1.414-0.003-2.769-0.565-3.768-1.565s-1.562-2.355-1.565-3.769zM13.333 13.333c0 0.527 0.156 1.043 0.449 1.481s0.71 0.78 1.197 0.982c0.487 0.202 1.023 0.255 1.541 0.152s0.992-0.357 1.365-0.73 0.627-0.848 0.73-1.365c0.103-0.517 0.050-1.053-0.152-1.541s-0.544-0.904-0.982-1.197-0.954-0.449-1.481-0.449c-0.707 0-1.386 0.281-1.886 0.781s-0.781 1.178-0.781 1.886z"></path>
</symbol>
<symbol id="icon-phone" viewBox="0 0 32 32">
<path fill="#fff" style="fill: var(--color3, #fff)" d="M27.716 32c-0.133 0-0.257 0-0.385-0.017h-0.024c-4.741-0.52-9.296-2.137-13.304-4.723-3.719-2.367-6.876-5.518-9.251-9.232-2.601-4.017-4.223-8.588-4.735-13.345v-0.021c-0.053-0.592 0.018-1.188 0.208-1.75s0.495-1.080 0.896-1.518c0.401-0.438 0.888-0.789 1.432-1.028s1.131-0.364 1.725-0.364h4.456c1.030 0.004 2.025 0.377 2.803 1.052s1.288 1.607 1.437 2.626v0.012c0.174 1.313 0.496 2.603 0.96 3.844 0.286 0.766 0.347 1.597 0.176 2.396s-0.567 1.533-1.142 2.114l-1.136 1.133c1.774 2.806 4.153 5.179 6.963 6.947l1.139-1.136c0.583-0.575 1.318-0.971 2.118-1.141s1.633-0.108 2.399 0.18c1.243 0.463 2.535 0.784 3.851 0.957h0.012c1.037 0.145 1.984 0.666 2.663 1.462s1.042 1.815 1.021 2.862v4.4c0.001 0.563-0.108 1.121-0.323 1.641s-0.53 0.994-0.927 1.392c-0.398 0.399-0.87 0.715-1.39 0.931s-1.078 0.327-1.641 0.326zM27.582 29.333c0.223 0.019 0.448-0.009 0.659-0.081s0.406-0.188 0.571-0.34c0.165-0.152 0.296-0.336 0.386-0.541s0.136-0.427 0.135-0.651v-4.427c0-0.011 0-0.022 0-0.033 0.009-0.394-0.127-0.779-0.382-1.080s-0.612-0.498-1.002-0.554c-1.513-0.2-2.999-0.569-4.429-1.101-0.289-0.109-0.604-0.133-0.907-0.070s-0.581 0.213-0.801 0.43l-1.867 1.867c-0.206 0.206-0.475 0.339-0.764 0.378s-0.583-0.018-0.836-0.162c-3.899-2.213-7.129-5.438-9.349-9.333-0.144-0.254-0.201-0.547-0.162-0.836s0.172-0.557 0.378-0.764l1.867-1.867c0.215-0.219 0.363-0.495 0.427-0.795s0.040-0.612-0.067-0.9c-0.534-1.428-0.905-2.912-1.105-4.424-0.057-0.384-0.25-0.735-0.544-0.989s-0.669-0.394-1.058-0.395h-4.455c-0.223-0-0.444 0.046-0.648 0.136s-0.388 0.221-0.539 0.385c-0.151 0.164-0.267 0.358-0.339 0.569s-0.1 0.435-0.082 0.657c0.468 4.337 1.948 8.504 4.319 12.165v0.009c2.165 3.389 5.045 6.263 8.439 8.421h0.011c3.657 2.365 7.815 3.846 12.144 4.324z"></path>
</symbol>
<symbol id="icon-recycle" viewBox="0 0 32 32">
<path fill="#fff" style="fill: var(--color1, #fff)" d="M13.918 30.818c-2.058-0.904-4.018-2.015-5.852-3.314l-0.489-0.321c-0.217-0.178-0.478-0.295-0.755-0.339-0.198 0.018-0.385 0.101-0.532 0.235-0.68 0.493-1.383 0.917-2.196 1.408-0.369 0.223-0.752 0.453-1.162 0.708-0.101 0.063-0.218 0.094-0.337 0.091s-0.234-0.042-0.331-0.111c-0.097-0.069-0.172-0.164-0.215-0.275s-0.052-0.232-0.026-0.348c0.984-4.439 1.897-8.555 2.844-12.824 0.018-0.080 0.052-0.156 0.1-0.223s0.109-0.123 0.18-0.165c0.071-0.042 0.15-0.069 0.231-0.079s0.165-0.004 0.244 0.019l12.555 3.586c0.107 0.031 0.204 0.090 0.28 0.173s0.127 0.184 0.148 0.293c0.021 0.109 0.011 0.223-0.028 0.327s-0.107 0.196-0.195 0.264l-3.656 2.838c1.152 0.313 2.339 0.476 3.533 0.483 2.243-0.013 4.439-0.637 6.354-1.806 2.039-1.258 3.892-2.796 5.504-4.568 0.094-0.098 0.218-0.161 0.353-0.18s0.271 0.008 0.389 0.077c0.117 0.069 0.208 0.176 0.257 0.302s0.054 0.267 0.014 0.397c-0.641 2.214-1.481 4.364-2.511 6.426-1.064 2.102-2.555 3.96-4.376 5.456-1.748 1.471-3.957 2.283-6.242 2.295-1.401-0.013-2.786-0.292-4.082-0.823zM8.239 26.174l0.491 0.323c1.767 1.252 3.654 2.324 5.635 3.2 1.155 0.475 2.389 0.726 3.638 0.739 2.009-0.014 3.95-0.733 5.484-2.030 1.692-1.392 3.077-3.122 4.065-5.078 0.641-1.246 1.192-2.536 1.649-3.861-1.212 1.146-2.546 2.156-3.977 3.013-2.099 1.277-4.506 1.959-6.963 1.97-1.71-0.018-3.405-0.316-5.019-0.882-0.103-0.035-0.195-0.097-0.266-0.18s-0.118-0.184-0.136-0.292c-0.018-0.108-0.007-0.218 0.033-0.32s0.106-0.191 0.193-0.257l3.637-2.823-10.794-3.083c-0.798 3.602-1.576 7.11-2.398 10.814 0.773-0.466 1.444-0.871 2.072-1.328 0.352-0.286 0.788-0.449 1.241-0.464 0.515 0.037 1.008 0.224 1.417 0.539zM26.215 16.345l-12.531-3.608c-0.107-0.031-0.203-0.091-0.279-0.173s-0.126-0.184-0.147-0.293c-0.021-0.11-0.011-0.223 0.028-0.327s0.107-0.196 0.195-0.264l3.579-2.777c-1.068-0.409-2.203-0.614-3.347-0.604-2.108 0.042-4.174 0.593-6.023 1.605-2.317 1.261-4.362 2.968-6.017 5.022-0.089 0.107-0.211 0.18-0.347 0.207s-0.277 0.006-0.4-0.059c-0.123-0.065-0.219-0.17-0.273-0.298s-0.062-0.271-0.024-0.404c0.522-1.873 1.193-3.702 2.007-5.468 0.827-1.793 1.901-3.462 3.19-4.958 1.034-1.216 2.301-2.214 3.726-2.935 1.352-0.667 2.84-1.012 4.347-1.009 1.744 0.026 3.462 0.419 5.044 1.154 1.641 0.794 3.204 1.741 4.668 2.827 0.266 0.181 0.539 0.374 0.807 0.557 0.168 0.14 0.367 0.238 0.58 0.285 0.133-0.017 0.259-0.072 0.362-0.158 0.76-0.526 1.553-1.017 2.395-1.535 0.377-0.231 0.766-0.472 1.174-0.729 0.101-0.064 0.218-0.096 0.338-0.093s0.235 0.042 0.332 0.111c0.097 0.069 0.172 0.164 0.215 0.276s0.052 0.233 0.026 0.349l-2.87 12.852c-0.018 0.080-0.052 0.156-0.1 0.223s-0.11 0.123-0.181 0.165c-0.093 0.055-0.2 0.084-0.308 0.084-0.057 0-0.113-0.008-0.167-0.023zM18.5 8.237c0.089 0.048 0.165 0.117 0.22 0.201s0.089 0.182 0.097 0.282c0.009 0.1-0.008 0.201-0.048 0.294s-0.103 0.173-0.183 0.235l-3.426 2.657 10.773 3.104 2.415-10.826c-0.812 0.501-1.58 0.976-2.3 1.476-0.302 0.23-0.669 0.361-1.049 0.373-0.462-0.033-0.902-0.206-1.262-0.497-0.271-0.187-0.546-0.377-0.813-0.561-1.404-1.042-2.9-1.951-4.472-2.717-1.427-0.665-2.978-1.022-4.552-1.048-1.323-0.003-2.629 0.3-3.816 0.884-1.281 0.651-2.419 1.55-3.348 2.646-1.216 1.411-2.229 2.986-3.008 4.679-0.396 0.839-0.763 1.731-1.115 2.717 1.342-1.307 2.862-2.418 4.515-3.301 2.023-1.104 4.282-1.702 6.585-1.744 1.666-0.020 3.31 0.375 4.786 1.147z"></path>
</symbol>
<symbol id="icon-search" viewBox="0 0 32 32">
<path fill="#504e4a" style="fill: var(--color6, #504e4a)" d="M27.244 30.582l-7.289-7.289c-2.515 1.896-5.655 2.769-8.788 2.443s-6.026-1.827-8.097-4.2c-2.071-2.373-3.166-5.443-3.064-8.591s1.392-6.141 3.611-8.376c2.219-2.235 5.203-3.546 8.35-3.67s6.225 0.949 8.613 3.003c2.388 2.054 3.909 4.936 4.257 8.067s-0.502 6.277-2.381 8.805l7.289 7.289c0.17 0.164 0.305 0.36 0.398 0.577s0.142 0.45 0.144 0.686c0.002 0.236-0.043 0.47-0.132 0.689s-0.221 0.417-0.388 0.584c-0.167 0.167-0.366 0.299-0.584 0.388s-0.452 0.134-0.689 0.132c-0.236-0.002-0.469-0.051-0.686-0.144s-0.413-0.228-0.577-0.398l0.012 0.005zM3.612 13.325c0 1.758 0.521 3.477 1.498 4.938s2.365 2.601 3.989 3.274c1.624 0.673 3.412 0.849 5.136 0.506s3.308-1.19 4.551-2.433c1.243-1.243 2.090-2.827 2.433-4.551s0.167-3.512-0.506-5.136c-0.673-1.624-1.812-3.012-3.274-3.989s-3.18-1.498-4.938-1.498c-2.357 0.002-4.616 0.94-6.283 2.606s-2.604 3.926-2.606 6.283z"></path>
</symbol>
<symbol id="icon-shopping-cart" viewBox="0 0 32 32">
<path d="M23.976 28.83c-0-0.534 0.156-1.057 0.449-1.501s0.71-0.791 1.198-0.996c0.488-0.205 1.025-0.259 1.543-0.155s0.994 0.361 1.368 0.739 0.628 0.859 0.731 1.383c0.103 0.524 0.050 1.067-0.152 1.561s-0.544 0.916-0.983 1.213c-0.439 0.297-0.955 0.455-1.484 0.455-0.707-0.002-1.385-0.286-1.886-0.792s-0.782-1.192-0.784-1.907zM9.296 28.83c0-0.534 0.156-1.056 0.45-1.5s0.71-0.79 1.197-0.994 1.024-0.258 1.542-0.154c0.518 0.104 0.993 0.361 1.366 0.739s0.627 0.858 0.73 1.382 0.050 1.066-0.152 1.56c-0.202 0.493-0.544 0.915-0.983 1.211s-0.955 0.455-1.482 0.455c-0.708-0-1.386-0.285-1.887-0.791s-0.78-1.192-0.781-1.908zM8.893 20.167l-2.231-11.272c0-0.036-0.015-0.074-0.021-0.112l-1.112-5.614h-4.245c-0.345-0.013-0.671-0.161-0.911-0.412s-0.373-0.587-0.373-0.936c0-0.349 0.134-0.685 0.373-0.936s0.566-0.399 0.911-0.412h5.338c0.31-0.002 0.611 0.105 0.852 0.303s0.406 0.474 0.467 0.782l1.121 5.666h21.595c0.197-0.001 0.392 0.042 0.571 0.126s0.337 0.207 0.463 0.361c0.126 0.153 0.217 0.333 0.267 0.526s0.056 0.395 0.019 0.591l-2.137 11.33c0.001 0.004 0.001 0.008 0 0.011-0.179 0.919-0.669 1.747-1.385 2.342s-1.614 0.919-2.54 0.918h-13.098c-0.926 0-1.823-0.324-2.539-0.918s-1.204-1.421-1.384-2.34zM11.512 19.639c0.061 0.311 0.227 0.591 0.471 0.79s0.549 0.305 0.863 0.3h13.051c0.308-0 0.607-0.108 0.845-0.306s0.402-0.473 0.462-0.779l1.832-9.723h-19.449l1.924 9.717z"></path>
</symbol>
<symbol id="icon-site-logo" viewBox="0 0 32 32">
<path d="M0 0h32v32h-32v-32z"></path>
</symbol>
<symbol id="icon-star" viewBox="0 0 32 32">
<path fill="#f5b423" style="fill: var(--color2, #f5b423)" d="M12.868 2.838c0.218-0.451 0.559-0.831 0.984-1.097s0.915-0.407 1.416-0.407c0.501 0 0.992 0.141 1.416 0.407s0.765 0.646 0.984 1.097l2.565 5.333c0.194 0.403 0.485 0.75 0.848 1.011s0.786 0.426 1.229 0.48l5.867 0.72c0.506 0.062 0.984 0.268 1.376 0.592s0.684 0.756 0.839 1.241 0.169 1.005 0.038 1.498c-0.131 0.493-0.4 0.937-0.776 1.282l-4.221 3.875c-0.337 0.309-0.589 0.699-0.732 1.133s-0.172 0.898-0.084 1.347l1.104 5.629c0.098 0.496 0.053 1.009-0.13 1.48s-0.496 0.881-0.902 1.181c-0.407 0.3-0.89 0.478-1.394 0.514s-1.008-0.072-1.453-0.312l-5.309-2.853c-0.388-0.209-0.822-0.318-1.263-0.318s-0.874 0.109-1.263 0.318l-5.312 2.853c-0.445 0.239-0.949 0.348-1.453 0.312s-0.988-0.214-1.394-0.514c-0.407-0.3-0.72-0.71-0.902-1.181s-0.228-0.985-0.13-1.48l1.104-5.629c0.088-0.449 0.059-0.912-0.084-1.347s-0.395-0.825-0.732-1.133l-4.235-3.877c-0.377-0.344-0.647-0.789-0.778-1.282s-0.119-1.013 0.037-1.499c0.156-0.486 0.447-0.917 0.84-1.242s0.872-0.531 1.378-0.592l5.867-0.72c0.443-0.055 0.866-0.22 1.229-0.48s0.655-0.608 0.848-1.011l2.579-5.328z"></path>
</symbol>
<symbol id="icon-tech-truck" viewBox="0 0 32 32">
<path d="M16 32c8.837 0 16-7.163 16-16s-7.163-16-16-16c-8.837 0-16 7.163-16 16s7.163 16 16 16z"></path>
</symbol>
<symbol id="icon-trash" viewBox="0 0 32 32">
<path fill="none" stroke="#b92770" style="stroke: var(--color3, #b92770)" stroke-linejoin="round" stroke-linecap="round" stroke-miterlimit="4" stroke-width="2.9091" d="M2.909 7.273h26.182"></path>
<path fill="none" stroke="#b92770" style="stroke: var(--color3, #b92770)" stroke-linejoin="round" stroke-linecap="round" stroke-miterlimit="4" stroke-width="2.9091" d="M26.182 7.273v20.364c0 0.771-0.306 1.511-0.852 2.057s-1.286 0.852-2.057 0.852h-14.545c-0.772 0-1.511-0.306-2.057-0.852s-0.852-1.286-0.852-2.057v-20.364M10.182 7.273v-2.909c0-0.772 0.306-1.511 0.852-2.057s1.286-0.852 2.057-0.852h5.818c0.771 0 1.511 0.306 2.057 0.852s0.852 1.286 0.852 2.057v2.909"></path>
<path fill="none" stroke="#b92770" style="stroke: var(--color3, #b92770)" stroke-linejoin="round" stroke-linecap="round" stroke-miterlimit="4" stroke-width="2.9091" d="M13.091 14.545v8.727"></path>
<path fill="none" stroke="#b92770" style="stroke: var(--color3, #b92770)" stroke-linejoin="round" stroke-linecap="round" stroke-miterlimit="4" stroke-width="2.9091" d="M18.909 14.545v8.727"></path>
</symbol>
<symbol id="icon-travel" viewBox="0 0 32 32">
<path d="M16 32c8.837 0 16-7.163 16-16s-7.163-16-16-16c-8.837 0-16 7.163-16 16s7.163 16 16 16z"></path>
</symbol>
<symbol id="icon-twitter" viewBox="0 0 32 32">
<path d="M32 6.272c-1.197 0.534-2.469 0.88-3.772 1.024 1.349-0.817 2.363-2.087 2.861-3.584-1.285 0.754-2.695 1.274-4.162 1.536-0.893-0.943-2.046-1.599-3.313-1.886s-2.59-0.191-3.802 0.275-2.259 1.282-3.007 2.343c-0.748 1.062-1.164 2.321-1.195 3.62-0.021 0.515 0.022 1.031 0.13 1.536-2.605-0.115-5.157-0.778-7.488-1.947s-4.389-2.817-6.039-4.836c-0.574 1.017-0.887 2.16-0.911 3.328-0.002 1.062 0.258 2.109 0.757 3.046s1.222 1.738 2.104 2.329c-1.004-0.102-1.978-0.407-2.861-0.896v0.128c0.016 1.518 0.555 2.983 1.527 4.149s2.316 1.961 3.806 2.25c-0.553 0.148-1.12 0.233-1.692 0.256-0.438 0.015-0.875-0.028-1.301-0.128 0.413 1.298 1.228 2.432 2.326 3.237s2.425 1.24 3.788 1.243c-2.327 1.852-5.22 2.846-8.194 2.816-0.524 0.021-1.048-0.022-1.562-0.128 3.014 1.855 6.487 2.83 10.027 2.816 2.445 0.038 4.873-0.411 7.143-1.32s4.337-2.26 6.080-3.975c1.743-1.715 3.127-3.759 4.073-6.014s1.433-4.675 1.435-7.12v-0.896c1.293-0.828 2.397-1.918 3.243-3.2z"></path>
</symbol>
<symbol id="icon-user" viewBox="0 0 32 32">
<path d="M27.313 30.401v-3.201c0-1.273-0.511-2.494-1.42-3.394s-2.143-1.406-3.429-1.406h-12.928c-1.286 0-2.519 0.506-3.428 1.406s-1.42 2.121-1.42 3.394v3.201c0 0.424-0.17 0.831-0.473 1.131s-0.714 0.469-1.143 0.469c-0.212 0-0.423-0.041-0.619-0.121s-0.374-0.198-0.525-0.347-0.27-0.325-0.351-0.519c-0.081-0.194-0.123-0.402-0.123-0.612v-3.201c0.003-2.121 0.855-4.155 2.37-5.655s3.569-2.343 5.712-2.345h12.928c2.142 0.002 4.197 0.845 5.712 2.345s2.367 3.533 2.37 5.655v3.201c0 0.21-0.042 0.418-0.123 0.612s-0.201 0.371-0.351 0.519-0.328 0.267-0.525 0.347c-0.196 0.080-0.407 0.121-0.619 0.121-0.428 0-0.84-0.169-1.142-0.469s-0.473-0.707-0.473-1.131zM7.919 8c0.003-2.121 0.855-4.155 2.371-5.655s3.57-2.343 5.713-2.345c2.142 0.003 4.196 0.847 5.711 2.347s2.367 3.533 2.369 5.655c-0.002 2.121-0.854 4.155-2.369 5.655s-3.569 2.343-5.711 2.345c-2.142-0.002-4.196-0.845-5.711-2.345s-2.367-3.534-2.369-5.655l-0.004-0.002zM11.15 8c0 1.273 0.511 2.494 1.42 3.394s2.143 1.406 3.428 1.406c1.286 0 2.519-0.506 3.429-1.406s1.42-2.121 1.42-3.394c0-1.273-0.511-2.494-1.42-3.394s-2.143-1.406-3.429-1.406c-1.286 0.001-2.518 0.508-3.427 1.408s-1.419 2.121-1.418 3.394l-0.004-0.002z"></path>
</symbol>
<symbol id="icon-cross" viewBox="0 0 20 20">
<path d="M10 8.586l-7.071-7.071-1.414 1.414 7.071 7.071-7.071 7.071 1.414 1.414 7.071-7.071 7.071 7.071 1.414-1.414-7.071-7.071 7.071-7.071-1.414-1.414-7.071 7.071z"></path>
</symbol>
<symbol id="icon-menu" viewBox="0 0 20 20">
<path d="M0 3h20v2h-20v-2zM0 9h20v2h-20v-2zM0 15h20v2h-20v-2z"></path>
</symbol>
</defs>
</svg>
